<svg width="54" height="50" viewBox="0 0 54 50" fill="none" xmlns="http://www.w3.org/2000/svg">
<path d="M8.31861 24.8183L25.5498 24.8184M7.83015 27.0771L4.97272 35.6131C3.41637 40.262 2.63834 42.5862 3.19679 44.0196C3.68158 45.2642 4.7234 46.2086 6.00973 46.569C7.49099 46.9841 9.72763 45.9819 14.2015 43.9773L42.9264 31.1067C47.3013 29.1463 49.4888 28.1662 50.1666 26.8008C50.7555 25.6145 50.7577 24.2217 50.1727 23.0336C49.4992 21.666 47.3149 20.6789 42.9463 18.7046L14.1932 5.71015C9.72281 3.68976 7.48731 2.67956 6.00463 3.09034C4.71688 3.44708 3.67195 4.38866 3.18348 5.63238C2.62078 7.06454 3.39371 9.39264 4.93901 14.0488L7.83581 22.7764C8.10073 23.5745 8.23333 23.9737 8.28546 24.382C8.33193 24.7441 8.33136 25.1107 8.28405 25.4728C8.23078 25.8808 8.09733 26.2798 7.83015 27.0771Z" stroke="white" stroke-width="5" stroke-linecap="round" stroke-linejoin="round"/>
</svg>
